<svg xmlns="http://www.w3.org/2000/svg" viewBox="0 0 800 456" font-family="-apple-system, 'Segoe UI', Helvetica, sans-serif">
  <text x="400" y="28" text-anchor="middle" font-size="16" font-weight="bold" fill="#073642">Join = Build Every Pair, Then Filter</text>

  <text x="74" y="86" text-anchor="middle" font-size="13" font-family="monospace" fill="#657b83">cities</text>
  <rect x="18" y="94" width="112" height="84" rx="10" fill="#ffffff" stroke="#073642" stroke-width="2"/>
  <rect x="18" y="94" width="112" height="26" rx="10" fill="#fdf6e3" stroke="#073642" stroke-width="2"/>
  <line x1="18" y1="150" x2="130" y2="150" stroke="#073642" stroke-width="1"/>
  <text x="74" y="112" text-anchor="middle" font-size="12" font-family="monospace" fill="#268bd2">Berkeley</text>
  <text x="74" y="140" text-anchor="middle" font-size="12" font-family="monospace" fill="#268bd2">Cambridge</text>
  <text x="74" y="168" text-anchor="middle" font-size="12" font-family="monospace" fill="#268bd2">Minneapolis</text>

  <text x="83" y="222" text-anchor="middle" font-size="13" font-family="monospace" fill="#657b83">temps</text>
  <rect x="18" y="230" width="130" height="84" rx="10" fill="#ffffff" stroke="#073642" stroke-width="2"/>
  <rect x="18" y="230" width="130" height="26" rx="10" fill="#fdf6e3" stroke="#073642" stroke-width="2"/>
  <line x1="18" y1="286" x2="148" y2="286" stroke="#073642" stroke-width="1"/>
  <text x="83" y="248" text-anchor="middle" font-size="12" font-family="monospace" fill="#268bd2">Berkeley (68)</text>
  <text x="83" y="276" text-anchor="middle" font-size="12" font-family="monospace" fill="#268bd2">Chicago (59)</text>
  <text x="83" y="304" text-anchor="middle" font-size="12" font-family="monospace" fill="#268bd2">Minneapolis (55)</text>

  <line x1="138" y1="202" x2="206" y2="202" stroke="#073642" stroke-width="2.5"/>
  <polygon points="204,196 215,202 204,208" fill="#073642"/>
  <text x="172" y="164" text-anchor="middle" font-size="11" fill="#657b83">from cities,</text>
  <text x="172" y="178" text-anchor="middle" font-size="11" fill="#657b83">temps</text>
  <text x="172" y="228" text-anchor="middle" font-size="11" fill="#93a1a1">pair every row</text>
  <text x="172" y="242" text-anchor="middle" font-size="11" fill="#93a1a1">with every row</text>

  <text x="300" y="108" text-anchor="middle" font-size="10" font-family="monospace" fill="#93a1a1">Berkeley</text>
  <text x="364" y="108" text-anchor="middle" font-size="10" font-family="monospace" fill="#93a1a1">Chicago</text>
  <text x="428" y="108" text-anchor="middle" font-size="10" font-family="monospace" fill="#93a1a1">Minneap.</text>

  <text x="262" y="140" text-anchor="end" font-size="10" font-family="monospace" fill="#93a1a1">Berkeley</text>
  <text x="262" y="188" text-anchor="end" font-size="10" font-family="monospace" fill="#93a1a1">Cambridge</text>
  <text x="262" y="236" text-anchor="end" font-size="10" font-family="monospace" fill="#93a1a1">Minneap.</text>

  <rect x="270" y="116" width="60" height="42" rx="6" fill="#ffffff" stroke="#073642" stroke-width="2"/>
  <text x="300" y="133" text-anchor="middle" font-size="9" font-family="monospace" fill="#073642">Berkeley</text>
  <text x="300" y="145" text-anchor="middle" font-size="9" font-family="monospace" fill="#073642">+ Berkeley</text>
  <rect x="334" y="116" width="60" height="42" rx="6" fill="#ffffff" stroke="#073642" stroke-width="2"/>
  <text x="364" y="133" text-anchor="middle" font-size="9" font-family="monospace" fill="#073642">Berkeley</text>
  <text x="364" y="145" text-anchor="middle" font-size="9" font-family="monospace" fill="#073642">+ Chicago</text>
  <rect x="398" y="116" width="60" height="42" rx="6" fill="#ffffff" stroke="#073642" stroke-width="2"/>
  <text x="428" y="133" text-anchor="middle" font-size="9" font-family="monospace" fill="#073642">Berkeley</text>
  <text x="428" y="145" text-anchor="middle" font-size="9" font-family="monospace" fill="#073642">+ Minneap.</text>

  <rect x="270" y="164" width="60" height="42" rx="6" fill="#ffffff" stroke="#073642" stroke-width="2"/>
  <text x="300" y="181" text-anchor="middle" font-size="9" font-family="monospace" fill="#073642">Cambridge</text>
  <text x="300" y="193" text-anchor="middle" font-size="9" font-family="monospace" fill="#073642">+ Berkeley</text>
  <rect x="334" y="164" width="60" height="42" rx="6" fill="#ffffff" stroke="#073642" stroke-width="2"/>
  <text x="364" y="181" text-anchor="middle" font-size="9" font-family="monospace" fill="#073642">Cambridge</text>
  <text x="364" y="193" text-anchor="middle" font-size="9" font-family="monospace" fill="#073642">+ Chicago</text>
  <rect x="398" y="164" width="60" height="42" rx="6" fill="#ffffff" stroke="#073642" stroke-width="2"/>
  <text x="428" y="181" text-anchor="middle" font-size="9" font-family="monospace" fill="#073642">Cambridge</text>
  <text x="428" y="193" text-anchor="middle" font-size="9" font-family="monospace" fill="#073642">+ Minneap.</text>

  <rect x="270" y="212" width="60" height="42" rx="6" fill="#ffffff" stroke="#073642" stroke-width="2"/>
  <text x="300" y="229" text-anchor="middle" font-size="9" font-family="monospace" fill="#073642">Minneap.</text>
  <text x="300" y="241" text-anchor="middle" font-size="9" font-family="monospace" fill="#073642">+ Berkeley</text>
  <rect x="334" y="212" width="60" height="42" rx="6" fill="#ffffff" stroke="#073642" stroke-width="2"/>
  <text x="364" y="229" text-anchor="middle" font-size="9" font-family="monospace" fill="#073642">Minneap.</text>
  <text x="364" y="241" text-anchor="middle" font-size="9" font-family="monospace" fill="#073642">+ Chicago</text>
  <rect x="398" y="212" width="60" height="42" rx="6" fill="#ffffff" stroke="#073642" stroke-width="2"/>
  <text x="428" y="229" text-anchor="middle" font-size="9" font-family="monospace" fill="#073642">Minneap.</text>
  <text x="428" y="241" text-anchor="middle" font-size="9" font-family="monospace" fill="#073642">+ Minneap.</text>

  <text x="364" y="274" text-anchor="middle" font-size="12" fill="#93a1a1">9 row-pairs (3 &#215; 3)</text>

  <line x1="468" y1="185" x2="528" y2="185" stroke="#073642" stroke-width="2.5"/>
  <polygon points="526,179 537,185 526,191" fill="#073642"/>
  <text x="498" y="168" text-anchor="middle" font-size="11" font-family="monospace" fill="#657b83">where</text>
  <text x="498" y="210" text-anchor="middle" font-size="11" font-family="monospace" fill="#657b83">name = city</text>

  <text x="624" y="108" text-anchor="middle" font-size="10" font-family="monospace" fill="#93a1a1">Berkeley</text>
  <text x="688" y="108" text-anchor="middle" font-size="10" font-family="monospace" fill="#93a1a1">Chicago</text>
  <text x="752" y="108" text-anchor="middle" font-size="10" font-family="monospace" fill="#93a1a1">Minneap.</text>

  <text x="586" y="140" text-anchor="end" font-size="10" font-family="monospace" fill="#93a1a1">Berkeley</text>
  <text x="586" y="188" text-anchor="end" font-size="10" font-family="monospace" fill="#93a1a1">Cambridge</text>
  <text x="586" y="236" text-anchor="end" font-size="10" font-family="monospace" fill="#93a1a1">Minneap.</text>

  <rect x="594" y="116" width="60" height="42" rx="6" fill="#cdeae6" stroke="#2aa198" stroke-width="2.5"/>
  <text x="624" y="133" text-anchor="middle" font-size="9" font-family="monospace" fill="#073642">Berkeley</text>
  <text x="624" y="145" text-anchor="middle" font-size="9" font-family="monospace" fill="#073642">| 38 | 68</text>

  <rect x="658" y="116" width="60" height="42" rx="6" fill="#ffffff" stroke="#93a1a1" stroke-width="1.5"/>
  <line x1="661" y1="119" x2="715" y2="155" stroke="#93a1a1" stroke-width="1.5"/>
  <rect x="722" y="116" width="60" height="42" rx="6" fill="#ffffff" stroke="#93a1a1" stroke-width="1.5"/>
  <line x1="725" y1="119" x2="779" y2="155" stroke="#93a1a1" stroke-width="1.5"/>

  <rect x="594" y="164" width="60" height="42" rx="6" fill="#ffffff" stroke="#93a1a1" stroke-width="1.5"/>
  <line x1="597" y1="167" x2="651" y2="203" stroke="#93a1a1" stroke-width="1.5"/>
  <rect x="658" y="164" width="60" height="42" rx="6" fill="#ffffff" stroke="#93a1a1" stroke-width="1.5"/>
  <line x1="661" y1="167" x2="715" y2="203" stroke="#93a1a1" stroke-width="1.5"/>
  <rect x="722" y="164" width="60" height="42" rx="6" fill="#ffffff" stroke="#93a1a1" stroke-width="1.5"/>
  <line x1="725" y1="167" x2="779" y2="203" stroke="#93a1a1" stroke-width="1.5"/>

  <rect x="594" y="212" width="60" height="42" rx="6" fill="#ffffff" stroke="#93a1a1" stroke-width="1.5"/>
  <line x1="597" y1="215" x2="651" y2="251" stroke="#93a1a1" stroke-width="1.5"/>
  <rect x="658" y="212" width="60" height="42" rx="6" fill="#ffffff" stroke="#93a1a1" stroke-width="1.5"/>
  <line x1="661" y1="215" x2="715" y2="251" stroke="#93a1a1" stroke-width="1.5"/>
  <rect x="722" y="212" width="60" height="42" rx="6" fill="#cdeae6" stroke="#2aa198" stroke-width="2.5"/>
  <text x="752" y="229" text-anchor="middle" font-size="9" font-family="monospace" fill="#073642">Minneap.</text>
  <text x="752" y="241" text-anchor="middle" font-size="9" font-family="monospace" fill="#073642">| 45 | 55</text>

  <text x="688" y="274" text-anchor="middle" font-size="13" font-family="monospace" fill="#2aa198">kept: 2 of 9</text>

  <text x="400" y="420" text-anchor="middle" font-size="13" fill="#93a1a1">A join first forms the full cross product of both tables,</text>
  <text x="400" y="438" text-anchor="middle" font-size="13" fill="#93a1a1">then where keeps only the row-pairs that name the same city.</text>
</svg>
